# Blender 3.5.1
# www.blender.org
mtllib logo.mtl
o Cube
v 0.001647 -1.992798 0.000000
v 0.000000 0.000000 2.000000
v 0.051578 0.017346 -1.991502
v -2.015794 0.003995 0.000000
v 1.999272 0.009069 0.000000
v 0.000000 0.000000 0.000000
v -0.007432 1.988200 0.000000
vn -0.7034 -0.7107 -0.0122
vn 0.0014 0.7108 -0.7034
vn -0.0000 -0.0000 1.0000
vn 0.5742 0.5802 -0.5776
vn 0.7149 0.0006 -0.6992
vn -0.9997 -0.0008 -0.0259
vn -0.5787 0.5775 -0.5759
vn 0.5691 -0.5760 0.5869
vn -0.9997 -0.0037 -0.0259
vn -0.5739 -0.5819 -0.5763
vn 0.5731 -0.5801 -0.5788
vt 0.375000 0.000000
vt 0.000000 0.000000
vt 0.125000 0.750000
vt 0.625000 0.000000
vt 0.000000 0.000000
vt 0.125000 0.500000
vt 0.375000 0.250000
vt 0.000000 0.000000
vt 0.625000 0.250000
vt 0.000000 0.000000
vt 0.375000 0.750000
vt 0.375000 0.500000
vt 0.000000 0.000000
vt 0.625000 0.500000
vt 0.000000 0.000000
s 0
f 1/1/1 2/4/1 4/9/1 3/7/1
f 3/7/2 4/9/2 7/14/2 6/12/2
f 5/11/3 6/12/3 1/3/3
f 4/9/4 2/4/4 1/1/4
f 3/6/5 6/12/5 5/11/5 1/3/5
f 6/13/6 3/8/6 1/2/6
f 1/3/3 5/11/3 7/14/3 6/12/3
f 2/4/7 5/11/7 1/3/7
f 4/9/8 3/7/8 7/14/8
f 6/13/9 7/15/9 3/8/9
f 5/11/10 2/4/10 7/14/10
f 7/15/11 2/5/11 4/10/11
o Plane
v 0.000000 1.000000 0.000000
v 1.000000 0.000000 0.000000
v 0.000000 0.000000 -1.000000
v 0.000000 -1.000000 0.000000
vn 0.7071 -0.0000 -0.7071
vn -0.5774 0.5774 0.5774
vn -0.5774 -0.5774 0.5774
vt 0.000000 0.000000
vt 1.000000 0.000000
vt 0.000000 0.000000
vt 0.000000 1.000000
vt 0.000000 0.000000
vt 1.000000 1.000000
s 0
f 8/16/12 9/17/12 11/21/12 10/19/12
f 9/17/13 10/19/13 11/21/13
f 10/20/14 9/18/14 8/16/14
