# Blender v2.79 (sub 0) OBJ File: ''
# www.blender.org
mtllib m2230B0A11.mtl
o mesh1
v 1.919997 55.382946 -96.896217
v 1.960577 55.332932 -96.771332
v 1.727136 55.332932 -96.652382
v 2.219348 55.382946 -96.943626
v 2.219348 55.332932 -96.812309
v 2.518699 55.361458 -96.896217
v 2.478120 55.332932 -96.771332
v 2.528416 55.385197 -96.926125
v 2.219348 55.416214 -96.975075
v 1.910281 55.497524 -96.926125
v 1.649948 55.382946 -96.758621
v 1.541876 55.332932 -96.467125
v 1.435636 55.382946 -96.544312
v 1.631466 55.497524 -96.784065
v 1.410197 55.497524 -96.562790
v 1.298038 55.382946 -96.274261
v 1.422932 55.332932 -96.233681
v 1.381946 55.332932 -95.974907
v 1.250626 55.382946 -95.974907
v 1.268134 55.497524 -96.283981
v 1.219182 55.497524 -95.974907
v 1.298038 55.382946 -95.675560
v 1.422931 55.332932 -95.716133
v 1.541875 55.332932 -95.482689
v 1.435636 55.382946 -95.405510
v 1.268134 55.497524 -95.665848
v 1.410197 55.497524 -95.387024
v 1.649948 55.382946 -95.191193
v 1.727136 55.332932 -95.297432
v 1.960577 55.332932 -95.178490
v 1.919997 55.382946 -95.053596
v 1.631466 55.497524 -95.165764
v 1.910280 55.497524 -95.023697
v 2.219348 55.382946 -95.006187
v 2.219348 55.332932 -95.137505
v 2.478120 55.332932 -95.178490
v 2.518700 55.382946 -95.053596
v 2.219348 55.497524 -94.974747
v 2.528417 55.497524 -95.023697
v 2.788749 55.382946 -95.191193
v 2.711561 55.332932 -95.297432
v 2.896821 55.332932 -95.482689
v 3.003061 55.382946 -95.405510
v 2.807231 55.497524 -95.165764
v 3.028500 55.497524 -95.387024
v 3.140658 55.382946 -95.675560
v 3.015765 55.332932 -95.716133
v 3.056750 55.332932 -95.974907
v 3.188070 55.382946 -95.974907
v 3.170563 55.497524 -95.665848
v 3.219514 55.497524 -95.974907
v 3.140658 55.382946 -96.274261
v 3.015765 55.332932 -96.233681
v 2.896821 55.332932 -96.467125
v 3.003061 55.382946 -96.544312
v 3.170562 55.497524 -96.283974
v 3.028499 55.497524 -96.562790
v 2.788749 55.382946 -96.758621
v 2.711561 55.332932 -96.652382
v 2.807231 55.404488 -96.784058
vt 0.201172 0.420898
vt 0.007813 0.177734
vt 0.241211 0.295898
vt 0.500000 0.468750
vt 0.500000 0.336914
vt 0.798828 0.420898
vt 0.758789 0.295898
vt 0.808594 0.451172
vt 0.500000 0.500000
vt 0.191406 0.451172
vt -0.069336 0.283203
vt -0.177734 -0.007813
vt -0.283203 0.069336
vt -0.087891 0.308594
vt -0.308594 0.087891
vt -0.420898 -0.201172
vt -0.295898 -0.241211
vt -0.336914 -0.500000
vt -0.468750 -0.500000
vt -0.451172 -0.191406
vt -0.500000 -0.500000
vt -0.420898 -0.798828
vt -0.295898 -0.758789
vt -0.177734 -0.992188
vt -0.283203 -1.069336
vt -0.451172 -0.808594
vt -0.308594 -1.087891
vt -0.069336 -1.283203
vt 0.007813 -1.177734
vt 0.241211 -1.295898
vt 0.201172 -1.420898
vt -0.087891 -1.308594
vt 0.191406 -1.451172
vt 0.500000 -1.468750
vt 0.500000 -1.336914
vt 0.758789 -1.295898
vt 0.798828 -1.420898
vt 0.500000 -1.500000
vt 0.808594 -1.451172
vt 1.069336 -1.283203
vt 0.992188 -1.177734
vt 1.177734 -0.992188
vt 1.283203 -1.069336
vt 1.087891 -1.308594
vt 1.308594 -1.087891
vt 1.420898 -0.798828
vt 1.295898 -0.758789
vt 1.336914 -0.500000
vt 1.468750 -0.500000
vt 1.451172 -0.808594
vt 1.500000 -0.500000
vt 1.420898 -0.201172
vt 1.295898 -0.241211
vt 1.177734 -0.007813
vt 1.283203 0.069336
vt 1.451172 -0.191406
vt 1.308594 0.087891
vt 1.069336 0.283203
vt 0.992188 0.177734
vt 1.087891 0.308594
vn -0.4438 0.8724 0.2050
vn -0.7936 0.1899 0.5781
vn -0.9357 0.3259 0.1349
vn 0.7997 0.6004 -0.0051
vn -0.7977 0.4620 -0.3875
vn -0.7761 0.1012 0.6224
vn 0.9632 0.2682 -0.0156
vn 0.7498 0.2855 0.5969
vn -0.8180 0.3953 0.4178
vn -0.6177 -0.4620 0.6364
vn 0.6942 0.6889 -0.2086
vn -0.4517 0.0552 0.8905
vn 0.8961 -0.1502 0.4178
vn -0.0762 -0.6464 0.7592
vn 0.2380 -0.5390 0.8080
vn 0.4255 0.6647 -0.6140
vn 0.0110 -0.0860 0.9962
vn 0.4804 -0.2369 0.8445
vn 0.9131 -0.3157 -0.2580
vn 0.3905 -0.4383 0.8096
vn 0.4576 -0.4738 -0.7524
vn 0.5859 0.5016 0.6365
vn -0.0043 -0.0735 -0.9973
vn -0.4651 0.0693 -0.8825
vn -0.1510 0.9466 -0.2849
vn 0.3902 -0.5059 -0.7693
vn 0.1959 -0.6234 -0.7569
vn 0.8296 0.5432 0.1290
vn -0.7998 0.2034 -0.5648
vn -0.9334 0.3371 -0.1228
vn -0.2566 0.9603 -0.1100
vn -0.1432 -0.7021 -0.6975
vn -0.5116 -0.6135 -0.6016
vn 0.7177 0.4263 -0.5506
vn -0.8175 0.4704 0.3322
vn 0.9376 0.3139 -0.1497
vn -0.4265 -0.1749 -0.8874
vn 0.7501 -0.4342 -0.4988
vn 0.4641 -0.6162 -0.6363
vn -0.6849 0.6927 0.2260
vn 0.7866 0.1768 -0.5917
vn 0.4380 0.0420 -0.8980
vn -0.9019 -0.1613 -0.4007
vn 0.0899 -0.6584 -0.7473
vn -0.2266 -0.5547 -0.8006
vn -0.4094 0.6711 0.6181
vn -0.0264 -0.0985 -0.9948
vn -0.4922 -0.2471 -0.8347
vn -0.9079 -0.3196 0.2713
vn -0.3828 -0.4523 -0.8055
vn -0.4461 -0.4752 0.7584
vn -0.5818 0.4977 -0.6433
vn 0.0027 -0.0766 0.9971
vn 0.4650 0.0674 0.8827
vn 0.1568 0.9478 0.2777
vn -0.3756 -0.5047 0.7773
vn 0.0550 -0.2348 0.9705
vn -0.8751 0.2395 -0.4206
vn 0.8008 0.2029 0.5636
vn 0.6172 0.5027 0.6053
usemtl m9001B0A11_1
s 1
f 1/1/1 3/2/2 2/3/3
f 2/3/3 4/4/4 1/1/1
f 4/4/4 2/3/3 5/5/5
f 5/5/5 6/6/6 4/4/4
f 6/6/6 5/5/5 7/7/7
f 4/4/4 6/6/6 8/8/8
f 8/8/8 9/9/9 4/4/4
f 1/1/1 4/4/4 9/9/9
f 9/9/9 10/10/10 1/1/1
f 11/11/11 1/1/1 10/10/10
f 3/2/2 1/1/1 11/11/11
f 11/11/11 12/12/12 3/2/2
f 13/13/13 12/12/12 11/11/11
f 11/11/11 14/14/14 13/13/13
f 10/10/10 14/14/14 11/11/11
f 13/13/13 14/14/14 15/15/15
f 15/15/15 16/16/16 13/13/13
f 17/17/17 13/13/13 16/16/16
f 12/12/12 13/13/13 17/17/17
f 18/18/18 17/17/17 16/16/16
f 16/16/16 19/19/19 18/18/18
f 20/20/20 19/19/19 16/16/16
f 16/16/16 15/15/15 20/20/20
f 19/19/19 20/20/20 21/21/21
f 21/21/21 22/22/22 19/19/19
f 23/23/23 19/19/19 22/22/22
f 18/18/18 19/19/19 23/23/23
f 24/24/24 23/23/23 22/22/22
f 22/22/22 25/25/25 24/24/24
f 26/26/26 25/25/25 22/22/22
f 22/22/22 21/21/21 26/26/26
f 25/25/25 26/26/26 27/27/27
f 27/27/27 28/28/28 25/25/25
f 29/29/29 25/25/25 28/28/28
f 24/24/24 25/25/25 29/29/29
f 30/30/30 29/29/29 28/28/28
f 28/28/28 31/31/31 30/30/30
f 32/32/32 31/31/31 28/28/28
f 28/28/28 27/27/27 32/32/32
f 31/31/31 32/32/32 33/33/33
f 33/33/33 34/34/34 31/31/31
f 35/35/35 31/31/31 34/34/34
f 30/30/30 31/31/31 35/35/35
f 36/36/36 35/35/35 34/34/34
f 34/34/34 37/37/37 36/36/36
f 38/38/38 37/37/37 34/34/34
f 34/34/34 33/33/33 38/38/38
f 37/37/37 38/38/38 39/39/39
f 39/39/39 40/40/40 37/37/37
f 41/41/41 37/37/37 40/40/40
f 36/36/36 37/37/37 41/41/41
f 42/42/42 41/41/41 40/40/40
f 40/40/40 43/43/43 42/42/42
f 44/44/44 43/43/43 40/40/40
f 40/40/40 39/39/39 44/44/44
f 43/43/43 44/44/44 45/45/45
f 45/45/45 46/46/46 43/43/43
f 47/47/47 43/43/43 46/46/46
f 42/42/42 43/43/43 47/47/47
f 48/48/48 47/47/47 46/46/46
f 46/46/46 49/49/49 48/48/48
f 50/50/50 49/49/49 46/46/46
f 46/46/46 45/45/45 50/50/50
f 49/49/49 50/50/50 51/51/51
f 51/51/51 52/52/52 49/49/49
f 53/53/53 49/49/49 52/52/52
f 48/48/48 49/49/49 53/53/53
f 54/54/54 53/53/53 52/52/52
f 52/52/52 55/55/55 54/54/54
f 56/56/56 55/55/55 52/52/52
f 52/52/52 51/51/51 56/56/56
f 55/55/55 56/56/56 57/57/57
f 57/57/57 58/58/58 55/55/55
f 59/59/59 55/55/55 58/58/58
f 54/54/54 55/55/55 59/59/59
f 7/7/7 59/59/59 58/58/58
f 58/58/58 6/6/6 7/7/7
f 60/60/60 6/6/6 58/58/58
f 58/58/58 57/57/57 60/60/60
f 8/8/8 6/6/6 60/60/60
o mesh0
v 1.910281 55.359192 -96.926125
v 2.007679 55.309185 -96.626358
v 1.816729 55.309185 -96.529068
v 2.219348 55.359200 -96.975075
v 1.631466 55.359192 -96.784065
v 1.665190 55.309185 -96.377525
v 1.410197 55.359192 -96.562790
v 1.567896 55.309185 -96.186577
v 1.268134 55.359192 -96.283981
v 2.219348 55.309185 -96.659882
v 2.528416 55.359192 -96.926125
v 2.431018 55.309185 -96.626358
v 2.807231 55.359192 -96.784058
v 2.621968 55.309185 -96.529068
v 3.028499 55.359192 -96.562790
v 2.773506 55.309185 -96.377525
v 3.170562 55.359192 -96.283974
v 2.870801 55.309185 -96.186577
v 3.219514 55.359192 -95.974907
v 2.904325 55.309185 -95.974907
v 3.170563 55.359192 -95.665848
v 2.870800 55.309185 -95.763245
v 3.028500 55.359192 -95.387024
v 2.621968 55.309185 -95.420746
v 1.816729 55.309185 -95.420746
v 1.567896 55.309185 -95.763245
v 1.534371 55.309185 -95.974907
v 1.219182 55.359192 -95.974907
v 1.268134 55.359192 -95.665848
v 1.665190 55.309185 -95.572296
v 1.410197 55.359192 -95.387024
v 1.631466 55.359192 -95.165764
v 2.007678 55.309185 -95.323456
v 1.910280 55.359192 -95.023697
v 2.219348 55.309185 -95.289932
v 2.219348 55.359192 -94.974747
v 2.431018 55.309185 -95.323456
v 2.528417 55.359192 -95.023697
v 2.807231 55.359192 -95.165764
v 2.773507 55.309185 -95.572296
vt 0.438477 -0.309570
vt 0.419922 -0.389648
vt 0.458008 -0.370117
vt 0.500000 -0.299805
vt 0.382813 -0.337891
vt 0.389648 -0.419922
vt 0.337891 -0.382813
vt 0.370117 -0.458008
vt 0.309570 -0.438477
vt 0.500000 -0.363281
vt 0.561523 -0.309570
vt 0.541992 -0.370117
vt 0.617188 -0.337891
vt 0.580078 -0.389648
vt 0.662109 -0.382813
vt 0.610352 -0.419922
vt 0.690430 -0.438477
vt 0.629883 -0.458008
vt 0.700195 -0.500000
vt 0.636719 -0.500000
vt 0.690430 -0.561523
vt 0.629883 -0.541992
vt 0.662109 -0.617188
vt 0.580078 -0.610352
vt 0.419922 -0.610352
vt 0.370117 -0.541992
vt 0.363281 -0.500000
vt 0.299805 -0.500000
vt 0.309570 -0.561523
vt 0.389648 -0.580078
vt 0.337891 -0.617188
vt 0.382813 -0.662109
vt 0.458008 -0.629883
vt 0.438477 -0.690430
vt 0.500000 -0.636719
vt 0.500000 -0.700195
vt 0.541992 -0.629883
vt 0.561523 -0.690430
vt 0.617188 -0.662109
vt 0.610352 -0.580078
vn -0.9802 0.1799 -0.0822
vn 0.5116 0.1280 -0.8496
vn 0.0379 0.0479 0.9981
vn -0.7531 0.2524 -0.6076
vn -0.8773 0.1012 0.4692
vn -0.0611 0.1403 -0.9882
vn -0.4792 0.0161 0.8775
vn -0.6305 0.1256 -0.7659
vn 0.0816 -0.0678 0.9944
vn 0.9724 0.1742 -0.1552
vn 0.9823 0.1749 -0.0669
vn -0.2719 0.2013 -0.9410
vn 0.8661 0.0931 0.4912
vn 0.3105 0.1754 -0.9342
vn 0.4572 0.0078 0.8894
vn 0.7855 0.1710 -0.5948
vn -0.0980 -0.0726 0.9925
vn -0.3308 0.0507 -0.9423
vn -0.6297 -0.1481 0.7626
vn -0.6292 -0.0133 0.7772
vn -0.0980 -0.0726 -0.9925
vn -0.9550 -0.0256 0.2956
vn 0.4528 0.0086 -0.8916
vn -0.1480 0.1698 0.9743
vn -0.4412 0.0697 -0.8947
vn 0.1293 0.0094 -0.9916
vn 0.6586 -0.0147 0.7524
vn 0.6288 -0.1474 -0.7635
vn 0.0972 -0.0719 -0.9927
vn 0.8701 0.0498 0.4903
vn -0.4572 0.0083 -0.8893
vn -0.8658 0.0933 -0.4916
vn 0.7755 0.0585 -0.6286
vn -0.9824 0.1750 0.0657
vn 0.9529 0.1136 -0.2811
vn 0.7640 0.2485 0.5955
vn -0.8935 0.1412 0.4262
vn 0.9824 0.1750 0.0657
vn 0.8698 0.0958 -0.4840
vn 0.0779 0.1401 0.9871
usemtl m9001B0A11_0
s 1
f 61/61/61 63/62/62 62/63/63
f 62/63/63 64/64/64 61/61/61
f 63/62/62 61/61/61 65/65/65
f 65/65/65 66/66/66 63/62/62
f 66/66/66 65/65/65 67/67/67
f 67/67/67 68/68/68 66/66/66
f 63/62/62 66/66/66 68/68/68
f 68/68/68 67/67/67 69/69/69
f 63/62/62 68/68/68 70/70/70
f 70/70/70 62/63/63 63/62/62
f 64/64/64 62/63/63 70/70/70
f 70/70/70 71/71/71 64/64/64
f 71/71/71 70/70/70 72/72/72
f 72/72/72 73/73/73 71/71/71
f 74/74/74 73/73/73 72/72/72
f 72/72/72 70/70/70 74/74/74
f 75/75/75 73/73/73 74/74/74
f 74/74/74 76/76/76 75/75/75
f 77/77/77 75/75/75 76/76/76
f 78/78/78 76/76/76 74/74/74
f 74/74/74 70/70/70 78/78/78
f 77/77/77 76/76/76 78/78/78
f 78/78/78 79/79/79 77/77/77
f 79/79/79 78/78/78 80/80/80
f 80/80/80 81/81/81 79/79/79
f 82/82/82 81/81/81 80/80/80
f 80/80/80 78/78/78 82/82/82
f 83/83/83 81/81/81 82/82/82
f 84/84/84 82/82/82 78/78/78
f 78/78/78 70/70/70 84/84/84
f 85/85/85 84/84/84 70/70/70
f 70/70/70 68/68/68 85/85/85
f 86/86/86 85/85/85 68/68/68
f 68/68/68 87/87/87 86/86/86
f 87/87/87 68/68/68 69/69/69
f 69/69/69 88/88/88 87/87/87
f 86/86/86 87/87/87 88/88/88
f 88/88/88 89/89/89 86/86/86
f 90/90/90 86/86/86 89/89/89
f 85/85/85 86/86/86 90/90/90
f 90/90/90 89/89/89 91/91/91
f 91/91/91 85/85/85 90/90/90
f 85/85/85 91/91/91 92/92/92
f 92/92/92 93/93/93 85/85/85
f 93/93/93 92/92/92 94/94/94
f 85/85/85 93/93/93 95/95/95
f 95/95/95 84/84/84 85/85/85
f 95/95/95 93/93/93 94/94/94
f 94/94/94 96/96/96 95/95/95
f 97/97/97 95/95/95 96/96/96
f 84/84/84 95/95/95 97/97/97
f 97/97/97 96/96/96 98/98/98
f 98/98/98 84/84/84 97/97/97
f 84/84/84 98/98/98 99/99/99
f 99/99/99 100/100/100 84/84/84
f 82/82/82 84/84/84 100/100/100
f 100/100/100 83/83/83 82/82/82
f 99/99/99 83/83/83 100/100/100
