# Blender 3.3.1
# www.blender.org
mtllib human_low.mtl
o HumanLow
v 0.204018 0.585980 -0.012714
v 0.182317 0.601477 0.102363
v 0.095652 0.601477 0.102363
v 0.073952 0.585980 -0.012714
v 0.145873 0.101878 -0.041803
v 0.130214 0.101878 0.060545
v 0.216925 0.101878 0.060545
v 0.201267 0.101878 -0.041803
v 0.218556 0.001012 -0.056775
v 0.128584 0.001012 -0.038395
v 0.132578 0.001012 0.114505
v 0.230771 0.001012 0.088310
v 0.137877 0.042153 0.249172
v 0.216730 0.034050 0.235835
v 0.231377 -0.001025 0.224849
v 0.115763 -0.001025 0.242068
v 0.086958 0.549551 0.115117
v 0.191011 0.549551 0.115117
v 0.075994 0.446094 -0.058787
v 0.217823 0.446094 -0.058787
v 0.163228 1.074129 0.137850
v 0.163061 1.061983 -0.071234
v 0.192827 0.939277 -0.069293
v 0.134071 1.232386 0.113104
v 0.156011 1.232386 -0.039588
v 0.150715 1.456774 0.110231
v 0.166990 1.504943 -0.104881
v 0.129298 1.621634 0.090801
v 0.172348 1.627023 -0.075530
v 0.292920 1.288112 -0.068648
v 0.294348 1.261890 0.025875
v 0.224522 1.238198 -0.064175
v 0.216796 1.213177 0.033581
v 0.063203 1.664156 0.010681
v 0.312551 1.261717 -0.078929
v 0.243687 1.181918 -0.078929
v 0.348743 1.005957 0.056556
v 0.312077 0.975234 0.056556
v 0.351491 1.004101 -0.013116
v 0.237228 1.542835 0.067978
v 0.256866 1.547362 -0.064066
v 0.403226 0.892420 0.118543
v 0.287163 0.945350 0.087145
v 0.309371 0.943399 -0.026862
v 0.385931 0.862996 -0.041366
v 0.323792 0.830571 0.118543
v 0.320725 0.856594 -0.039569
v 0.069369 1.712631 0.010681
v 0.060363 1.695242 0.117183
v 0.087972 1.800795 0.119867
v 0.079111 1.917483 0.114259
v 0.087972 1.795755 -0.055406
v 0.079111 1.921374 -0.056769
v -0.000002 1.965068 -0.015152
v -0.000002 1.955331 0.103664
v -0.079111 1.921374 -0.056769
v -0.000002 1.921414 -0.098006
v -0.000002 1.771472 -0.116269
v -0.087972 1.795755 -0.055406
v -0.079111 1.917483 0.114259
v -0.087972 1.800795 0.119867
v -0.000002 1.898342 0.172222
v -0.000002 1.781039 0.186901
v -0.000002 1.685263 0.169948
v -0.060363 1.695242 0.117183
v -0.000002 1.694542 -0.069190
v -0.000002 1.667634 0.090502
v -0.069369 1.712631 0.010681
v -0.320725 0.856594 -0.039569
v -0.323792 0.830571 0.118543
v -0.385930 0.862996 -0.041366
v -0.309371 0.943399 -0.026862
v -0.287162 0.945350 0.087145
v -0.403225 0.892420 0.118543
v -0.256865 1.547362 -0.064066
v -0.237228 1.542835 0.067978
v -0.000002 1.617999 0.095863
v -0.000002 1.621071 -0.090806
v -0.351491 1.004101 -0.013116
v -0.312077 0.975234 0.056556
v -0.348743 1.005957 0.056556
v -0.243687 1.181918 -0.078929
v -0.312550 1.261717 -0.078929
v -0.063202 1.664156 0.010681
v -0.216796 1.213177 0.033581
v -0.224522 1.238198 -0.064175
v -0.294348 1.261890 0.025875
v -0.292920 1.288112 -0.068648
v -0.172347 1.627023 -0.075530
v -0.129298 1.621634 0.090801
v -0.000002 1.455858 0.150260
v -0.000002 1.520128 -0.142679
v -0.166990 1.504943 -0.104881
v -0.150715 1.456774 0.110231
v -0.000002 1.228824 0.147699
v -0.000002 1.228824 -0.082420
v -0.156011 1.232386 -0.039588
v -0.134071 1.232386 0.113104
v -0.192826 0.939277 -0.069293
v -0.000002 0.931916 -0.092766
v -0.000002 0.933496 0.136309
v -0.000002 1.035529 -0.129773
v -0.000002 1.042395 0.146343
v -0.163061 1.061983 -0.071234
v -0.163228 1.074129 0.137850
v -0.217823 0.446094 -0.058787
v -0.075994 0.446094 -0.058787
v -0.191011 0.549551 0.115117
v -0.086958 0.549551 0.115117
v -0.115763 -0.001025 0.242068
v -0.231377 -0.001025 0.224849
v -0.216730 0.034050 0.235835
v -0.137877 0.042153 0.249172
v -0.230771 0.001012 0.088310
v -0.132578 0.001012 0.114505
v -0.128584 0.001012 -0.038395
v -0.218556 0.001012 -0.056775
v -0.201267 0.101878 -0.041803
v -0.216925 0.101878 0.060545
v -0.130214 0.101878 0.060545
v -0.145872 0.101878 -0.041803
v -0.073951 0.585980 -0.012714
v -0.095652 0.601477 0.102363
v -0.182317 0.601477 0.102363
v -0.204017 0.585980 -0.012714
v 0.218556 0.001012 -0.056775
v 0.128584 0.001012 -0.038395
v 0.231377 -0.001025 0.224849
v 0.115763 -0.001025 0.242068
v 0.230771 0.001012 0.088310
v 0.132578 0.001012 0.114505
v 0.060363 1.695242 0.117183
v -0.000002 1.685263 0.169948
v -0.060363 1.695242 0.117183
v -0.000002 1.617999 0.095863
v -0.000002 0.931916 -0.092766
v -0.000002 0.931916 -0.092766
v -0.000002 0.933496 0.136309
v -0.000002 0.933496 0.136309
v -0.230771 0.001012 0.088310
v -0.218556 0.001012 -0.056775
v -0.132578 0.001012 0.114505
v -0.128584 0.001012 -0.038395
v -0.115763 -0.001025 0.242068
v -0.231377 -0.001025 0.224849
vn -0.6851 -0.0257 -0.7280
vn 0.6598 0.0604 -0.7490
vn 0.6258 0.1442 -0.7665
vn -0.7697 0.0768 -0.6338
vn -0.8728 0.2440 0.4228
vn -0.4447 0.4045 0.7991
vn 0.5556 0.3982 0.7299
vn 0.8663 0.3396 0.3662
vn -0.8038 -0.0247 0.5945
vn 0.8530 0.0501 0.5195
vn 0.9827 0.1840 -0.0186
vn -0.9938 0.1097 -0.0171
vn -0.0019 -1.0000 -0.0093
vn -0.0014 -1.0000 -0.0067
vn -0.0032 -0.9999 -0.0156
vn -0.0000 -1.0000 -0.0000
vn -0.6339 0.0356 0.7726
vn -0.6643 0.0495 0.7458
vn 0.6404 0.0958 0.7621
vn 0.6711 0.1356 0.7289
vn -0.7058 0.0273 -0.7078
vn 0.7005 0.1146 -0.7044
vn 0.8120 0.1059 -0.5740
vn -0.7717 -0.0499 -0.6340
vn -0.0000 -0.0917 0.9958
vn 0.7037 0.0722 0.7069
vn -0.0000 -0.0170 0.9999
vn 0.7910 -0.0373 -0.6107
vn 0.7574 0.1341 -0.6390
vn -0.0000 0.0232 -0.9997
vn -0.0000 -0.1387 -0.9903
vn 0.8523 0.0193 -0.5227
vn 0.7387 0.0450 0.6725
vn -0.0000 -0.0000 -1.0000
vn -0.0000 0.0363 0.9993
vn 0.3407 -0.0299 0.9397
vn 0.2201 0.0033 -0.9755
vn -0.7166 -0.1156 -0.6878
vn -0.7149 -0.2293 0.6605
vn 0.6913 0.3066 -0.6543
vn 0.6593 0.3383 -0.6715
vn -0.5318 -0.2439 -0.8110
vn 0.7623 0.1222 0.6355
vn -0.7143 0.3693 0.5944
vn 0.6566 0.3819 0.6504
vn 0.8089 0.1391 -0.5712
vn -0.6592 -0.0825 -0.7474
vn 0.7095 0.7023 0.0577
vn 0.3414 0.6623 0.6669
vn 0.4265 0.7535 -0.5004
vn -0.0000 0.5148 0.8573
vn -0.0000 0.5136 -0.8580
vn -0.0000 0.0739 -0.9973
vn -0.0000 0.1089 0.9940
vn 0.7270 0.3643 0.5820
vn 0.7888 0.3891 -0.4758
vn -0.7953 0.2920 0.5312
vn 0.7050 -0.1218 0.6986
vn 0.7235 -0.3353 -0.6035
vn -0.3698 -0.7338 0.5700
vn -0.3461 -0.6190 -0.7050
vn -0.6600 -0.3127 -0.6831
vn -0.5278 -0.2001 0.8254
vn -0.0000 -0.0246 0.9997
vn 0.9413 -0.3035 -0.1475
vn -0.0000 -0.8399 0.5428
vn -0.0000 -0.3200 -0.9474
vn 0.4082 -0.9127 0.0209
vn -0.0000 -0.9997 0.0229
vn 0.8543 -0.2087 0.4760
vn 0.8986 -0.0514 0.4357
vn -0.0000 -0.0619 0.9981
vn -0.0000 -0.2094 0.9778
vn 0.8681 -0.1511 -0.4728
vn -0.0000 -0.3063 -0.9519
vn 0.7471 0.5052 -0.4320
vn 0.7623 0.5052 0.4047
vn -0.0000 0.3916 0.9201
vn -0.0000 0.9483 0.3175
vn -0.0000 0.4988 -0.8667
vn -0.0000 0.9906 -0.1364
vn -0.7623 0.5052 0.4047
vn -0.8986 -0.0514 0.4357
vn -0.8681 -0.1511 -0.4728
vn -0.7471 0.5052 -0.4320
vn -0.9413 -0.3035 -0.1475
vn -0.8544 -0.2087 0.4760
vn -0.4082 -0.9127 0.0209
vn -0.2201 0.0033 -0.9755
vn -0.8523 0.0193 -0.5227
vn -0.7387 0.0450 0.6725
vn -0.3407 -0.0299 0.9397
vn -0.7095 0.7023 0.0577
vn 0.6340 0.0356 0.7726
vn 0.7717 -0.0499 -0.6340
vn 0.6600 -0.3127 -0.6831
vn 0.5278 -0.2001 0.8254
vn -0.6711 0.1356 0.7289
vn -0.7037 0.0722 0.7069
vn -0.8120 0.1059 -0.5740
vn -0.7910 -0.0373 -0.6107
vn -0.8089 0.1391 -0.5712
vn 0.6592 -0.0825 -0.7474
vn 0.3461 -0.6190 -0.7050
vn -0.7235 -0.3353 -0.6035
vn 0.7953 0.2920 0.5312
vn 0.3698 -0.7338 0.5700
vn -0.7050 -0.1218 0.6986
vn 0.7143 0.3693 0.5944
vn -0.6566 0.3819 0.6504
vn 0.7166 -0.1156 -0.6878
vn -0.6913 0.3067 -0.6543
vn -0.7888 0.3891 -0.4758
vn -0.7270 0.3643 0.5820
vn -0.7623 0.1222 0.6355
vn 0.7149 -0.2293 0.6605
vn -0.4265 0.7535 -0.5004
vn -0.3414 0.6623 0.6669
vn 0.5318 -0.2439 -0.8110
vn -0.6593 0.3383 -0.6715
vn -0.7574 0.1341 -0.6390
vn 0.6643 0.0495 0.7458
vn 0.7058 0.0273 -0.7078
vn -0.7005 0.1146 -0.7044
vn -0.6404 0.0958 0.7621
vn 0.6851 -0.0257 -0.7280
vn 0.8728 0.2440 0.4228
vn -0.8663 0.3396 0.3662
vn -0.6598 0.0604 -0.7490
vn 0.0019 -1.0000 -0.0093
vn 0.0014 -1.0000 -0.0067
vn 0.0032 -0.9999 -0.0156
vn -0.6258 0.1442 -0.7665
vn -0.9827 0.1840 -0.0186
vn 0.9938 0.1097 -0.0171
vn 0.7697 0.0768 -0.6338
vn 0.4447 0.4045 0.7991
vn 0.8038 -0.0247 0.5945
vn -0.8530 0.0501 0.5195
vn -0.5556 0.3982 0.7299
vt 0.506357 0.792990
vt 0.602009 0.792990
vt 0.448819 0.800739
vt 0.591159 0.800739
vt 0.547826 0.800739
vt 0.448819 0.800739
vt 0.536976 0.792990
vt 0.506357 0.792990
vt 0.572936 0.550939
vt 0.520901 0.550939
vt 0.565107 0.469728
vt 0.565107 0.550939
vt 0.469728 0.550939
vt 0.608463 0.469727
vt 0.608463 0.550939
vt 0.469727 0.550939
vt 0.600634 0.550939
vt 0.520901 0.550939
vt 0.609278 0.528388
vt 0.564292 0.519197
vt 0.566289 0.442747
vt 0.615386 0.455845
vt 0.568938 0.375414
vt 0.568938 0.521077
vt 0.375414 0.521077
vt 0.608365 0.382082
vt 0.608365 0.517025
vt 0.382082 0.517025
vt 0.615688 0.387575
vt 0.557881 0.378966
vt 0.543479 0.774776
vt 0.442441 0.774776
vt 0.595505 0.774776
vt 0.442441 0.774776
vt 0.537997 0.723047
vt 0.529394 0.723047
vt 0.608912 0.723047
vt 0.529394 0.723047
vt 0.431075 0.037064
vt 0.581614 0.037064
vt 0.431075 1.037064
vt 0.581614 1.037064
vt 0.535617 1.030992
vt 0.535617 0.030992
vt 0.581531 0.030992
vt 0.596413 -0.030362
vt 0.534647 0.969638
vt 0.596413 0.969638
vt 0.443448 0.116193
vt 0.567036 0.116193
vt 0.519794 0.116193
vt 0.578006 0.116193
vt 0.444884 0.228387
vt 0.575357 0.228387
vt 0.552440 0.252472
vt 0.583495 0.252472
vt 0.564649 0.454599
vt 0.564649 0.310817
vt 0.000000 0.000000
vt 0.586174 0.537765
vt 0.586174 0.313511
vt 1.000000 0.000000
vt 0.000000 0.000000
vt 0.534324 0.144056
vt 0.646460 0.144056
vt 0.471479 0.137179
vt 0.647174 0.137179
vt 0.532087 0.119099
vt 0.612261 0.119099
vt 0.479200 0.106589
vt 0.612742 0.106589
vt 0.531601 0.494660
vt 0.494660 0.332078
vt 0.656275 0.130858
vt 0.539465 0.130858
vt 0.621844 0.090959
vt 0.539465 0.090959
vt 0.674371 0.002979
vt 0.674371 0.471722
vt 0.471722 0.002979
vt 0.656038 -0.012383
vt 0.471722 -0.012383
vt 0.656038 0.471722
vt 0.471722 0.987617
vt 0.506558 0.002051
vt 0.675745 0.002051
vt 0.466011 0.271417
vt 0.618614 0.271417
vt 1.000000 1.000000
vt 1.000000 0.000000
vt 0.532033 0.273681
vt 0.628433 0.273681
vt 1.000000 1.000000
vt 0.440728 -0.053790
vt 0.701613 0.440728
vt 0.701613 0.946210
vt 0.643581 0.456428
vt 0.643581 0.972675
vt 0.456428 0.972675
vt 0.513431 -0.028301
vt 0.513431 0.971699
vt 0.654686 -0.028301
vt 0.520683 -0.068502
vt 0.692965 0.520683
vt 0.692965 -0.068502
vt 0.661896 0.440728
vt 0.661896 0.915285
vt 0.440728 0.915285
vt 0.660363 0.519785
vt 0.519785 0.928297
vt 0.660363 -0.071703
vt 0.534684 0.494660
vt 0.494660 0.356316
vt 0.530182 0.347621
vt 0.441409 0.347621
vt 0.436981 0.400560
vt 0.547465 0.400560
vt 0.440007 0.463518
vt 0.542684 0.440007
vt 0.542684 0.463518
vt 0.519939 0.398947
vt 0.547465 0.398947
vt 0.520674 0.466723
vt 0.542684 0.520674
vt 0.542684 0.466723
vt 0.499999 0.509830
vt 0.499999 0.445724
vt 0.499999 0.483939
vt 0.457316 0.466723
vt 0.457316 0.520674
vt 0.520674 0.466723
vt 0.499999 0.456096
vt 0.499999 0.554639
vt 0.499999 0.385736
vt 0.558134 0.385736
vt 0.452535 0.398947
vt 0.519939 0.398947
vt 0.457316 0.440007
vt 0.457316 0.463518
vt 0.440007 0.463518
vt 0.436981 0.400560
vt 0.452535 0.400560
vt 0.499999 0.448146
vt 0.499999 0.390519
vt 0.499999 0.415026
vt 0.469819 0.441409
vt 0.534595 0.347271
vt 0.499999 0.454749
vt 0.454749 0.333817
vt 0.465316 0.494660
vt 0.494660 0.356316
vt 0.339637 -0.071703
vt 0.519785 0.928297
vt 0.339637 0.519785
vt 0.440728 0.915285
vt 0.338104 0.915285
vt 0.338104 0.440728
vt 0.307035 -0.068502
vt 0.307035 0.520683
vt 0.520683 -0.068502
vt 0.513431 0.971699
vt 0.513431 -0.028301
vt 0.345314 -0.028301
vt 0.356419 0.972675
vt 0.456428 0.972675
vt 0.356419 -0.027325
vt 0.298387 0.946210
vt 0.298387 0.440728
vt 0.440728 -0.053790
vt 0.298387 -0.053790
vt 0.371567 0.273681
vt 0.532033 0.273681
vt 0.000000 0.000000
vt 0.466011 0.271417
vt 0.381386 0.271417
vt 1.000000 0.000000
vt 0.000000 0.000000
vt 0.499999 0.309000
vt 0.499999 0.452068
vt 0.545403 0.310536
vt 0.499999 0.310536
vt 0.499999 0.545403
vt 0.506558 0.002051
vt 0.324255 0.002051
vt 0.471722 0.987617
vt 0.471722 -0.012383
vt 0.343962 -0.012383
vt 0.471722 0.002979
vt 0.325629 0.002979
vt 0.539465 0.090959
vt 0.378157 0.090959
vt 0.539465 0.130858
vt 0.343725 0.130858
vt 0.494660 0.332078
vt 0.468399 0.494660
vt 0.387258 0.106589
vt 0.479200 0.106589
vt 0.387739 0.119099
vt 0.532087 0.119099
vt 0.352826 0.137179
vt 0.471479 0.137179
vt 0.534324 0.144056
vt 0.353540 0.144056
vt 0.413826 0.313511
vt 0.413826 0.537765
vt 1.000000 1.000000
vt 1.000000 0.000000
vt 0.435351 0.310817
vt 0.435351 0.454599
vt 1.000000 1.000000
vt 0.499999 0.221696
vt 0.499999 0.260064
vt 0.416505 0.252472
vt 0.552440 0.252472
vt 0.424643 0.228387
vt 0.444884 0.228387
vt 0.499999 0.114412
vt 0.499999 0.114412
vt 0.421995 0.116193
vt 0.519794 0.116193
vt 0.432964 0.116193
vt 0.443448 0.116193
vt 0.403587 0.969638
vt 0.403587 -0.030362
vt 0.534647 0.969638
vt 0.499999 -0.034042
vt 0.499999 0.966748
vt 0.499999 0.017764
vt 0.499999 0.021198
vt 0.499999 1.021198
vt 0.535617 0.030992
vt 0.418470 0.030992
vt 0.535617 1.030992
vt 0.418386 0.037064
vt 0.431075 0.037064
vt 0.431075 1.037064
vt 0.418386 1.037064
vt 0.529394 0.723047
vt 0.391088 0.723047
vt 0.529394 0.723047
vt 0.462003 0.723047
vt 0.442441 0.774776
vt 0.404495 0.774776
vt 0.442441 0.774776
vt 0.456521 0.774776
vt 0.378966 0.499488
vt 0.442119 0.499488
vt 0.387575 0.499488
vt 0.384312 0.499488
vt 0.382082 0.517025
vt 0.391635 0.517025
vt 0.391635 0.382082
vt 0.375414 0.521077
vt 0.431062 0.521077
vt 0.431062 0.375414
vt 0.455845 0.500506
vt 0.442747 0.500506
vt 0.519197 0.500506
vt 0.435708 0.500506
vt 0.528388 0.500506
vt 0.390722 0.500506
vt 0.520901 0.550939
vt 0.399367 0.550939
vt 0.391537 0.550939
vt 0.469727 0.550939
vt 0.391537 0.469727
vt 0.434893 0.550939
vt 0.469728 0.550939
vt 0.434893 0.469728
vt 0.520901 0.550939
vt 0.427064 0.550939
vt 0.506357 0.792990
vt 0.463024 0.792990
vt 0.448819 0.800739
vt 0.452174 0.800739
vt 0.448819 0.800739
vt 0.408842 0.800739
vt 0.506357 0.792990
vt 0.397991 0.792990
vt 0.609278 0.500506
vt 0.528388 0.500506
vt 0.564292 0.500506
vt 0.519197 0.500506
vt 0.615688 0.499487
vt 0.387575 0.499487
vt 0.557881 0.499487
vt 0.378966 0.499487
vt 0.455845 0.500506
vt 0.442747 0.500506
vt 0.530182 0.441409
vt 0.499999 0.342632
vt 0.441409 0.347621
vt 0.469819 0.347621
vt 0.452068 0.309000
vt 0.546383 0.965958
vt 0.499999 0.965958
vt 0.499999 0.965958
vt 0.546383 0.965958
vt 0.431845 0.966748
vt 0.499999 0.966748
vt 0.499999 0.966748
vt 0.431845 0.966748
vt 0.384614 0.455845
vt 0.390722 0.528388
vt 0.433711 0.442747
vt 0.435708 0.519197
vt 0.442119 0.378966
vt 0.384312 0.387575
s 1
usemtl Material
f 5/9/1 8/17/2 126/280/3 127/282/4
f 6/11/5 13/23/6 14/26/7 7/14/8
f 13/24/6 129/286/9 128/284/10 14/27/7
f 7/16/8 14/28/7 128/285/10 130/288/11
f 6/13/5 131/289/12 129/287/9 13/25/6
f 5/10/1 127/283/4 131/289/12 6/13/5
f 7/16/8 130/288/11 126/281/3 8/18/2
f 11/21/13 12/22/14 15/29/15 16/30/15
f 9/19/16 12/22/14 11/21/13 10/20/16
f 3/5/17 17/31/18 18/33/19 2/4/20
f 17/31/18 6/12/5 7/15/8 18/33/19
f 8/17/2 5/9/1 19/35/21 20/37/22
f 1/2/23 20/37/22 19/35/21 4/7/24
f 7/16/8 8/18/2 20/38/22 18/34/19
f 5/10/1 6/13/5 17/32/18 19/36/21
f 1/1/23 2/3/20 18/34/19
f 1/1/23 18/34/19 20/38/22
f 3/6/17 4/8/24 17/32/18
f 4/8/24 19/36/21 17/32/18
f 101/227/25 21/42/26 103/230/27
f 23/47/28 22/43/29 21/41/26
f 102/228/30 22/45/29 23/46/28 100/226/31
f 21/39/26 22/44/29 25/51/32 24/49/33
f 22/45/29 102/228/30 96/218/34 25/52/32
f 103/229/27 21/40/26 24/50/33 95/217/35
f 26/53/36 27/55/37 32/68/38 33/70/39
f 30/65/40 35/74/41 36/76/42 32/69/38
f 30/64/40 31/66/43 35/75/41
f 32/68/38 36/77/42 33/70/39
f 33/71/39 38/81/44 37/78/45 31/67/43
f 35/74/41 39/86/46 44/102/47 36/76/42
f 31/66/43 37/80/45 39/85/46 35/75/41
f 36/77/42 44/100/47 38/82/44 33/70/39
f 34/72/48 28/57/49 29/60/50
f 28/57/49 34/72/48 77/179/51
f 29/60/50 78/182/52 34/72/48
f 27/56/37 92/212/53 78/181/52 29/61/50
f 26/54/36 28/58/49 77/178/51 91/211/54
f 40/88/55 28/58/49 26/54/36
f 40/87/55 31/66/43 30/64/40 41/91/56
f 29/61/50 41/92/56 27/56/37
f 26/54/36 33/71/39 31/67/43 40/88/55
f 27/56/37 41/92/56 30/65/40 32/69/38
f 37/79/45 38/83/44 43/97/57 42/95/58
f 39/85/46 37/80/45 42/94/58 45/103/59
f 38/84/44 44/101/47 43/99/57
f 45/104/59 42/95/58 46/106/60 47/109/61
f 42/96/58 43/98/57 46/107/60
f 43/99/57 44/101/47 47/110/61 46/108/60
f 39/86/46 45/105/59 47/111/61 44/102/47
f 1/1/23 23/47/28 21/41/26 2/3/20
f 1/2/23 4/7/24 137/297/62 23/48/28
f 2/4/20 21/42/26 139/301/63 3/5/17
f 3/6/17 139/302/63 137/298/62 4/8/24
f 135/294/64 34/73/48 48/113/65 67/149/66
f 34/73/48 78/180/52 66/147/67 48/113/65
f 24/49/33 25/51/32 27/55/37 26/53/36
f 24/50/33 26/54/36 91/211/54 95/217/35
f 27/56/37 25/52/32 96/218/34 92/212/53
f 67/148/66 48/112/65 132/290/68 64/145/69
f 49/114/70 50/117/71 63/144/72 133/291/73
f 48/113/65 52/121/74 50/116/71 49/115/70
f 48/113/65 66/147/67 58/135/75 52/121/74
f 50/116/71 52/121/74 53/123/76 51/118/77
f 62/143/78 51/120/77 55/128/79
f 57/133/80 54/126/81 53/124/76
f 51/119/77 53/124/76 54/126/81 55/127/79
f 58/134/75 57/132/80 53/125/76 52/122/74
f 63/144/72 50/117/71 51/120/77 62/143/78
f 63/144/72 62/143/78 60/139/82 61/142/83
f 58/134/75 59/136/84 56/129/85 57/132/80
f 60/138/82 55/127/79 54/126/81 56/130/85
f 57/133/80 56/130/85 54/126/81
f 62/143/78 55/128/79 60/139/82
f 61/141/83 60/140/82 56/131/85 59/137/84
f 68/151/86 59/137/84 58/135/75 66/147/67
f 68/151/86 134/292/87 61/141/83 59/137/84
f 134/293/87 133/291/73 63/144/72 61/142/83
f 67/148/66 64/145/69 65/146/88 68/150/86
f 93/213/89 92/212/53 96/218/34 97/219/90
f 98/221/91 95/217/35 91/211/54 94/215/92
f 98/222/91 94/216/92 93/214/89 97/220/90
f 84/194/93 68/151/86 66/147/67 78/180/52
f 135/294/64 67/149/66 68/151/86 84/194/93
f 123/274/94 122/272/95 136/295/96 138/299/97
f 124/277/98 123/275/94 138/300/97 105/237/99
f 125/279/100 99/223/101 136/296/96 122/273/95
f 125/278/100 124/276/98 105/236/99 99/225/101
f 79/184/102 72/163/103 69/152/104 71/158/105
f 73/165/106 70/155/107 69/153/104 72/161/103
f 74/167/108 70/156/107 73/164/106
f 71/159/105 69/154/104 70/157/107 74/168/108
f 80/185/109 73/165/106 72/161/103
f 79/183/102 71/160/105 74/169/108 81/188/110
f 81/189/110 74/170/108 73/166/106 80/187/109
f 93/213/89 86/198/111 88/203/112 75/171/113
f 94/215/92 76/175/114 87/200/115 85/196/116
f 89/204/117 93/213/89 75/171/113
f 76/174/114 75/172/113 88/202/112 87/201/115
f 76/175/114 94/215/92 90/208/118
f 94/215/92 91/211/54 77/178/51 90/208/118
f 93/213/89 89/204/117 78/181/52 92/212/53
f 89/205/117 84/195/93 78/182/52
f 90/209/118 77/179/51 84/195/93
f 84/195/93 89/205/117 90/209/118
f 82/190/119 85/197/116 80/186/109 72/162/103
f 87/201/115 83/192/120 79/183/102 81/188/110
f 83/193/120 82/191/119 72/163/103 79/184/102
f 85/196/116 87/200/115 81/189/110 80/187/109
f 86/199/111 85/197/116 82/190/119
f 88/202/112 83/192/120 87/201/115
f 88/203/112 86/198/111 82/191/119 83/193/120
f 94/216/92 85/197/116 86/199/111 93/214/89
f 103/229/27 95/217/35 98/221/91 105/234/99
f 104/232/121 97/219/90 96/218/34 102/228/30
f 105/235/99 98/222/91 97/220/90 104/231/121
f 102/228/30 100/226/31 99/224/101 104/232/121
f 99/225/101 105/236/99 104/233/121
f 101/227/25 103/230/27 105/237/99
f 122/272/95 109/244/122 107/240/123
f 123/274/94 109/244/122 122/272/95
f 125/278/100 106/238/124 108/242/125
f 125/278/100 108/242/125 124/276/98
f 121/270/126 107/240/123 109/244/122 120/268/127
f 119/265/128 108/242/125 106/238/124 118/262/129
f 125/279/100 122/273/95 107/241/123 106/239/124
f 118/263/129 106/239/124 107/241/123 121/271/126
f 109/245/122 108/243/125 119/264/128 120/267/127
f 123/275/94 124/277/98 108/243/125 109/245/122
f 141/304/16 143/306/16 142/305/130 140/303/131
f 142/305/130 144/307/132 145/308/132 140/303/131
f 119/265/128 118/262/129 117/260/133 114/256/134
f 121/270/126 120/268/127 115/257/135 116/258/136
f 120/268/127 113/253/137 110/246/138 115/257/135
f 119/265/128 114/256/134 111/248/139 112/250/140
f 113/254/137 112/251/140 111/249/139 110/247/138
f 120/269/127 119/266/128 112/252/140 113/255/137
f 121/271/126 116/259/136 117/261/133 118/263/129
f 28/59/49 40/89/55 29/62/50
f 29/63/50 40/90/55 41/93/56
f 75/173/113 76/176/114 89/206/117
f 76/177/114 90/210/118 89/207/117
