# Blender 3.3.1
# www.blender.org
mtllib logo.mtl
o Plane.002
v 0.000000 0.000000 -3.000000
v 0.000000 -0.000000 3.000000
v -3.000000 0.000000 0.000000
v 0.000000 -3.000000 -0.000000
v 3.000000 0.000000 0.000000
v 0.000000 3.000000 0.000000
vn 1.0000 -0.0000 -0.0000
vn -0.0000 -0.0000 1.0000
vn -0.5774 0.5774 0.5774
vn -0.5774 -0.5774 0.5773
vn -0.5774 0.5774 -0.5774
vn -0.5774 -0.5774 -0.5774
vn 0.5774 -0.5774 -0.5774
vn 0.5774 0.5774 -0.5774
vt 0.000000 0.000000
vt 0.000000 0.000000
vt 0.000000 0.000000
vt 0.000000 0.000000
vt 0.000000 0.000000
vt 0.000000 0.000000
s 0
usemtl Material.002
f 6//1 4//1 1//1
f 3//2 4//2 6//2
f 1//3 4//3 5//3
f 6//4 1//4 5//4
f 4//5 2//5 5//5
f 5//6 2//6 6//6
f 3//7 6//7 2//7
f 4//8 3//8 2//8
o Plane
v -2.000000 0.000000 -0.000000
v 0.000000 2.000000 -0.000000
v 0.000000 -2.000000 -0.000000
v 0.000000 0.000000 -2.000000
vn -0.7071 -0.0000 -0.7071
vt 0.000000 0.000000
vt 1.000000 0.000000
vt 0.000000 1.000000
vt 1.000000 1.000000
s 0
usemtl Material.001
f 7/7/9 8/8/9 10/10/9 9/9/9
